<?xml version="1.0" encoding="utf-8"?>
<!-- Generator: Adobe Illustrator 17.0.2, SVG Export Plug-In . SVG Version: 6.00 Build 0)  -->
<!DOCTYPE svg PUBLIC "-//W3C//DTD SVG 1.1//EN" "http://www.w3.org/Graphics/SVG/1.1/DTD/svg11.dtd">
<svg version="1.1" id="Layer_1" xmlns="http://www.w3.org/2000/svg" xmlns:xlink="http://www.w3.org/1999/xlink" x="0px" y="0px"
	 width="841.89px" height="62.359px" viewBox="0 0 841.89 62.359" enable-background="new 0 0 841.89 62.359" xml:space="preserve">
<g>
	<polygon fill="#2B2B2B" points="304.071,1.947 332.447,30.079 360.812,1.947 360.812,60.616 350.293,60.616 350.293,28.113 
		332.447,45.892 314.603,28.113 314.603,60.616 304.071,60.616 	"/>
	<polygon fill="#2B2B2B" points="201.148,36.382 201.148,26.222 201.148,3.03 245.273,3.03 245.273,13.208 211.773,13.208 
		211.773,26.222 235.102,26.222 235.102,36.382 211.773,36.382 211.773,50.882 245.273,50.882 245.273,61.038 201.148,61.038 	"/>
	<polygon fill="#2B2B2B" points="180.509,3.042 166.952,3.042 143.424,32.051 166.952,61.049 180.509,61.049 156.117,32.051 	"/>
	<rect x="132.811" y="3.042" fill="#2B2B2B" width="10.612" height="58.008"/>
	<polygon fill="#2B2B2B" points="665.987,3.153 676.603,3.153 676.603,51.001 704.974,51.001 704.974,61.147 665.987,61.147 	"/>
	<polygon fill="#2B2B2B" points="725.465,36.499 725.465,26.334 725.465,3.153 769.588,3.153 769.588,13.306 736.084,13.306 
		736.084,26.334 759.425,26.334 759.425,36.499 736.084,36.499 736.084,51.006 769.588,51.006 769.588,61.147 725.465,61.147 	"/>
	<path fill="#2B2B2B" d="M407.488-0.001l27.973,60.616h-11.452l-4.396-10.522h-24.344l-4.394,10.522h-11.348L407.488-0.001z
		 M415.863,40.818l-8.326-19.05l-8.42,19.05H415.863z"/>
	<path fill="#2B2B2B" d="M544.879-0.001l27.973,60.616h-11.453l-4.401-10.522h-24.344l-4.394,10.522h-11.348L544.879-0.001z
		 M553.252,40.818l-8.33-19.05l-8.421,19.05H553.252z"/>
	<path fill="#2B2B2B" d="M502.491,50.445c-6.408,8.122-15.379,11.915-24.532,11.915c-17.211,0-30.853-13.21-30.853-30.209
		c0-16.994,13.642-30.204,30.853-30.204c9.153,0,18.124,3.793,24.532,11.916l-8.787,6.654c-3.667-5.36-9.244-8.41-15.745-8.41
		c-10.347,0-19.68,8.778-19.68,20.044c0,11.27,9.333,20.038,19.68,20.038c6.501,0,12.267-3.039,15.918-8.036L502.491,50.445z"/>
	<path fill="#2B2B2B" d="M589.916,3.153h10.618v32.052c0,10.622,6.68,16.989,14.92,16.989c8.334,0,14.917-6.367,14.917-16.989V3.153
		h10.625v34.352c0,13.401-10.163,24.849-25.542,24.849c-15.382,0-25.538-11.447-25.538-24.849V3.153z"/>
	<polygon fill="#2B2B2B" points="810.68,35.568 790.08,3.153 802.348,3.153 815.983,25.684 829.623,3.153 841.89,3.153 
		821.302,35.568 821.302,61.154 810.68,61.154 	"/>
	<polygon fill="#2B2B2B" points="0,3.03 10.625,3.03 10.625,50.877 38.993,50.877 38.993,61.038 0,61.038 	"/>
	<path fill="#2B2B2B" d="M57.06,3.03h10.624v32.058c0,10.628,6.675,16.995,14.92,16.995c8.327,0,14.917-6.367,14.917-16.995V3.03
		h10.616v34.363c0,13.396-10.16,24.849-25.533,24.849c-15.389,0-25.545-11.452-25.545-24.849V3.03z"/>
</g>
<g>
</g>
<g>
</g>
<g>
</g>
<g>
</g>
<g>
</g>
<g>
</g>
</svg>
