<?xml version="1.0" encoding="utf-8"?>
<!-- Generator: Adobe Illustrator 17.0.2, SVG Export Plug-In . SVG Version: 6.00 Build 0)  -->
<!DOCTYPE svg PUBLIC "-//W3C//DTD SVG 1.1//EN" "http://www.w3.org/Graphics/SVG/1.1/DTD/svg11.dtd">
<svg version="1.1" id="Layer_1" xmlns="http://www.w3.org/2000/svg" xmlns:xlink="http://www.w3.org/1999/xlink" x="0px" y="0px"
	 width="274px" height="223px" viewBox="0 0 274 223" enable-background="new 0 0 274 223" xml:space="preserve">
<g>
	<path fill="#2B2B2B" d="M85.98,223c-31.675,0-61.158-9.285-85.98-25.199c4.388,0.518,8.853,0.783,13.38,0.783
		c26.278,0,50.463-8.967,69.659-24.01c-24.544-0.453-45.258-16.669-52.395-38.953c3.424,0.655,6.938,1.006,10.552,1.006
		c5.116,0,10.071-0.685,14.778-1.967c-25.66-5.152-44.993-27.822-44.993-54.998c0-0.236,0-0.471,0.004-0.705
		c7.563,4.201,16.211,6.724,25.406,7.015c-15.05-10.058-24.953-27.226-24.953-46.685c0-10.279,2.766-19.914,7.594-28.198
		c27.664,33.934,68.993,56.264,115.609,58.603c-0.956-4.105-1.453-8.386-1.453-12.782c0-30.975,25.114-56.088,56.091-56.088
		c16.132,0,30.709,6.812,40.941,17.713c12.776-2.516,24.78-7.184,35.617-13.611c-4.188,13.097-13.081,24.089-24.662,31.031
		c11.346-1.356,22.156-4.371,32.215-8.832c-7.52,11.248-17.03,21.127-27.988,29.035c0.108,2.405,0.162,4.824,0.162,7.256
		C245.564,137.533,189.148,223,85.98,223"/>
</g>
</svg>
